<svg width="108" height="41" viewBox="0 0 108 41" fill="none" xmlns="http://www.w3.org/2000/svg">
<path d="M0.871135 38.0122C0.325612 38.6357 0.388788 39.5833 1.01224 40.1289C1.6357 40.6744 2.58334 40.6112 3.12887 39.9878L0.871135 38.0122ZM104.9 40.4967C105.727 40.5518 106.442 39.9264 106.497 39.0998L107.395 25.6297C107.45 24.8031 106.824 24.0883 105.998 24.0332C105.171 23.9781 104.456 24.6035 104.401 25.4301L103.603 37.4035L91.6297 36.6053C90.8031 36.5502 90.0883 37.1756 90.0332 38.0022C89.9781 38.8288 90.6035 39.5436 91.4301 39.5987L104.9 40.4967ZM4.68138 38.421C5.2836 37.8522 5.31064 36.9028 4.74176 36.3006C4.17289 35.6984 3.22353 35.6713 2.6213 36.2402L4.68138 38.421ZM7.845 31.8993C7.17897 32.392 7.03839 33.3312 7.53103 33.9973C8.02366 34.6633 8.96295 34.8039 9.62898 34.3113L7.845 31.8993ZM13.4386 31.7013C14.1381 31.2575 14.3454 30.3306 13.9016 29.6311C13.4578 28.9316 12.531 28.7243 11.8314 29.1681L13.4386 31.7013ZM17.7092 25.8202C16.9709 26.196 16.677 27.0992 17.0529 27.8375C17.4287 28.5757 18.3318 28.8696 19.0701 28.4938L17.7092 25.8202ZM23.2545 26.5337C24.0158 26.2069 24.368 25.3249 24.0412 24.5637C23.7144 23.8024 22.8324 23.4502 22.0712 23.777L23.2545 26.5337ZM28.3894 21.396C27.6018 21.6532 27.1719 22.5 27.429 23.2875C27.6862 24.075 28.533 24.505 29.3206 24.2478L28.3894 21.396ZM33.764 22.9504C34.5661 22.7432 35.0484 21.9251 34.8412 21.123C34.634 20.3209 33.8159 19.8386 33.0138 20.0457L33.764 22.9504ZM39.6005 18.6442C38.7836 18.7819 38.233 19.5558 38.3707 20.3727C38.5084 21.1896 39.2823 21.7401 40.0992 21.6024L39.6005 18.6442ZM44.6982 20.9679C45.5218 20.879 46.1175 20.1392 46.0286 19.3156C45.9397 18.4919 45.1999 17.8963 44.3763 17.9852L44.6982 20.9679ZM51.0876 17.5332C50.2595 17.5561 49.6067 18.246 49.6296 19.0741C49.6525 19.9022 50.3424 20.555 51.1705 20.5321L51.0876 17.5332ZM55.8295 20.5321C56.6576 20.555 57.3475 19.9022 57.3704 19.0741C57.3933 18.246 56.7405 17.5561 55.9124 17.5332L55.8295 20.5321ZM62.6237 17.9852C61.8001 17.8963 61.0603 18.4919 60.9714 19.3156C60.8825 20.1392 61.4782 20.879 62.3018 20.9679L62.6237 17.9852ZM66.9008 21.6024C67.7177 21.7401 68.4916 21.1896 68.6293 20.3727C68.767 19.5558 68.2164 18.7819 67.3995 18.6442L66.9008 21.6024ZM73.9863 20.0457C73.1841 19.8386 72.366 20.3209 72.1588 21.123C71.9516 21.9251 72.4339 22.7432 73.236 22.9504L73.9863 20.0457ZM77.6794 24.2478C78.4669 24.505 79.3138 24.075 79.571 23.2875C79.8281 22.5 79.3982 21.6532 78.6106 21.396L77.6794 24.2478ZM84.9288 23.777C84.1676 23.4502 83.2856 23.8024 82.9588 24.5637C82.632 25.3249 82.9842 26.2069 83.7455 26.5337L84.9288 23.777ZM87.9299 28.4938C88.6682 28.8696 89.5713 28.5757 89.9471 27.8375C90.323 27.0992 90.0291 26.196 89.2908 25.8202L87.9299 28.4938ZM95.1686 29.1681C94.469 28.7243 93.5422 28.9316 93.0984 29.6311C92.6546 30.3306 92.8619 31.2575 93.5614 31.7013L95.1686 29.1681ZM97.371 34.3113C98.0371 34.8039 98.9763 34.6633 99.469 33.9973C99.9616 33.3312 99.821 32.392 99.155 31.8993L97.371 34.3113ZM104.379 36.2402C103.776 35.6713 102.827 35.6984 102.258 36.3006C101.689 36.9028 101.716 37.8522 102.319 38.421L104.379 36.2402ZM2 39C3.12887 39.9878 3.12878 39.9878 3.12871 39.9879C3.12868 39.988 3.12861 39.9881 3.12856 39.9881C3.12847 39.9882 3.12838 39.9883 3.12831 39.9884C3.12815 39.9886 3.12803 39.9887 3.12795 39.9888C3.12777 39.989 3.12774 39.989 3.12783 39.9889C3.12802 39.9887 3.12875 39.9879 3.13001 39.9865C3.13253 39.9836 3.13718 39.9784 3.14398 39.9708C3.15757 39.9556 3.17972 39.931 3.21039 39.8974C3.27175 39.8303 3.36724 39.7274 3.49677 39.5922C3.75585 39.3217 4.15097 38.9221 4.68138 38.421L2.6213 36.2402C2.05268 36.7773 1.62213 37.2124 1.3303 37.517C1.18437 37.6694 1.0731 37.7892 0.99655 37.8729C0.958276 37.9147 0.928681 37.9475 0.907777 37.9709C0.897324 37.9826 0.889044 37.9919 0.882936 37.9988C0.879883 38.0023 0.877372 38.0051 0.875405 38.0074C0.874422 38.0085 0.873574 38.0095 0.872863 38.0103C0.872507 38.0107 0.872185 38.011 0.871897 38.0114C0.871753 38.0115 0.871617 38.0117 0.87149 38.0118C0.871427 38.0119 0.871338 38.012 0.871306 38.012C0.87122 38.0121 0.871135 38.0122 2 39ZM9.62898 34.3113C10.7545 33.4788 12.0246 32.5984 13.4386 31.7013L11.8314 29.1681C10.354 30.1054 9.02495 31.0266 7.845 31.8993L9.62898 34.3113ZM19.0701 28.4938C20.3848 27.8245 21.7797 27.1668 23.2545 26.5337L22.0712 23.777C20.5343 24.4367 19.0802 25.1223 17.7092 25.8202L19.0701 28.4938ZM29.3206 24.2478C30.7445 23.7829 32.2257 23.3477 33.764 22.9504L33.0138 20.0457C31.4134 20.4591 29.8719 20.9119 28.3894 21.396L29.3206 24.2478ZM40.0992 21.6024C41.5878 21.3515 43.1208 21.1381 44.6982 20.9679L44.3763 17.9852C42.7392 18.1619 41.1472 18.3834 39.6005 18.6442L40.0992 21.6024ZM51.1705 20.5321C51.9379 20.5109 52.7144 20.5 53.5 20.5V17.5C52.6867 17.5 51.8826 17.5112 51.0876 17.5332L51.1705 20.5321ZM53.5 20.5C54.2856 20.5 55.0621 20.5109 55.8295 20.5321L55.9124 17.5332C55.1174 17.5112 54.3133 17.5 53.5 17.5V20.5ZM62.3018 20.9679C63.8792 21.1381 65.4122 21.3515 66.9008 21.6024L67.3995 18.6442C65.8528 18.3834 64.2608 18.1619 62.6237 17.9852L62.3018 20.9679ZM73.236 22.9504C74.7743 23.3477 76.2555 23.7829 77.6794 24.2478L78.6106 21.396C77.1282 20.9119 75.5866 20.4591 73.9863 20.0457L73.236 22.9504ZM83.7455 26.5337C85.2203 27.1668 86.6152 27.8245 87.9299 28.4938L89.2908 25.8202C87.9198 25.1223 86.4657 24.4367 84.9288 23.777L83.7455 26.5337ZM93.5614 31.7013C94.9754 32.5984 96.2455 33.4788 97.371 34.3113L99.155 31.8993C97.9751 31.0266 96.646 30.1054 95.1686 29.1681L93.5614 31.7013ZM102.319 38.421C102.849 38.9221 103.244 39.3217 103.503 39.5922C103.633 39.7274 103.728 39.8303 103.79 39.8974C103.82 39.931 103.842 39.9556 103.856 39.9708C103.863 39.9784 103.867 39.9836 103.87 39.9865C103.871 39.9879 103.872 39.9887 103.872 39.9889C103.872 39.989 103.872 39.989 103.872 39.9888C103.872 39.9887 103.872 39.9886 103.872 39.9884C103.872 39.9883 103.872 39.9882 103.871 39.9881C103.871 39.9881 103.871 39.988 103.871 39.9879C103.871 39.9878 103.871 39.9878 105 39C106.129 38.0122 106.129 38.0121 106.129 38.012C106.129 38.012 106.129 38.0119 106.129 38.0118C106.128 38.0117 106.128 38.0115 106.128 38.0114C106.128 38.011 106.127 38.0107 106.127 38.0103C106.126 38.0095 106.126 38.0085 106.125 38.0074C106.123 38.0051 106.12 38.0023 106.117 37.9988C106.111 37.9919 106.103 37.9826 106.092 37.9709C106.071 37.9475 106.042 37.9147 106.003 37.8729C105.927 37.7892 105.816 37.6694 105.67 37.517C105.378 37.2124 104.947 36.7773 104.379 36.2402L102.319 38.421Z" fill="#FDF181"/>
<path d="M42.25 31.75L41 29L39.75 31.75L37 33L39.75 34.25L41 37L42.25 34.25L45 33L42.25 31.75Z" fill="#FCF283"/>
<path d="M7.5 5.5L10 0L12.5 5.5L18 8L12.5 10.5L10 16L7.5 10.5L2 8L7.5 5.5Z" fill="#FCF283"/>
</svg>

