<svg width="32" height="39" viewBox="0 0 32 39" fill="none" xmlns="http://www.w3.org/2000/svg">
<path fill-rule="evenodd" clip-rule="evenodd" d="M4.68627 27.3137C-1.56212 21.0653 -1.56212 10.9347 4.68627 4.68627C10.9347 -1.56212 21.0653 -1.56212 27.3137 4.68627C33.5621 10.9347 33.5621 21.0653 27.3137 27.3137L16 38.6274L4.68627 27.3137ZM16 22C19.3137 22 22 19.3137 22 16C22 12.6863 19.3137 9.99997 16 9.99997C12.6863 9.99997 9.99998 12.6863 9.99998 16C9.99998 19.3137 12.6863 22 16 22Z" fill="#C4C4C4"/>
<path fill-rule="evenodd" clip-rule="evenodd" d="M4.68627 27.3137C-1.56212 21.0653 -1.56212 10.9347 4.68627 4.68627C10.9347 -1.56212 21.0653 -1.56212 27.3137 4.68627C33.5621 10.9347 33.5621 21.0653 27.3137 27.3137L16 38.6274L4.68627 27.3137ZM16 22C19.3137 22 22 19.3137 22 16C22 12.6863 19.3137 9.99997 16 9.99997C12.6863 9.99997 9.99998 12.6863 9.99998 16C9.99998 19.3137 12.6863 22 16 22Z" fill="url(#paint0_linear)"/>
<defs>
<linearGradient id="paint0_linear" x1="16" y1="0.499988" x2="34.6621" y2="21.0638" gradientUnits="userSpaceOnUse">
<stop stop-color="#AC130B"/>
<stop offset="1" stop-color="#72120B"/>
</linearGradient>
</defs>
</svg>



