<?xml version="1.0" standalone="no"?>
<!DOCTYPE svg PUBLIC "-//W3C//DTD SVG 20010904//EN"
 "http://www.w3.org/TR/2001/REC-SVG-20010904/DTD/svg10.dtd">
<svg version="1.0" xmlns="http://www.w3.org/2000/svg"
 width="104.000000pt" height="104.000000pt" viewBox="0 0 104.000000 104.000000"
 preserveAspectRatio="xMidYMid meet">
<metadata>
Created by potrace 1.11, written by Peter Selinger 2001-2013
</metadata>
<g transform="translate(0.000000,104.000000) scale(0.100000,-0.100000)"
fill="#000000" stroke="none">
<path d="M450 897 c-3 -3 -25 -8 -49 -11 -25 -3 -54 -14 -65 -25 -12 -10 -38
-25 -59 -32 -69 -24 -187 -133 -187 -172 0 -5 15 1 33 12 38 23 64 20 116 -15
56 -38 83 -5 40 50 -20 26 -49 35 -49 16 0 -5 7 -10 15 -10 8 0 19 -9 25 -19
14 -26 13 -31 -5 -25 -8 4 -12 10 -10 15 3 5 -6 11 -20 14 -14 3 -37 7 -51 11
-19 3 -34 -2 -53 -18 l-26 -23 25 28 c16 19 32 27 45 24 12 -2 27 2 33 10 7 7
10 13 6 13 -4 0 1 9 11 20 10 11 22 20 28 20 5 0 -1 -9 -14 -20 l-24 -20 25 5
c18 4 41 -4 80 -29 49 -32 56 -34 67 -19 16 20 -8 70 -39 82 -12 4 -17 10 -12
14 10 6 75 -22 110 -48 20 -15 23 -14 38 1 16 15 15 18 -7 48 -14 17 -33 32
-43 34 -15 2 -13 -2 9 -18 15 -12 27 -29 27 -37 0 -12 -6 -10 -23 9 -17 19
-34 25 -74 27 -61 2 -76 -17 -32 -43 28 -16 40 -46 19 -46 -5 0 -10 7 -10 15
0 10 -14 17 -40 21 -22 4 -40 11 -40 16 0 5 4 7 9 4 5 -4 18 6 29 21 16 22 27
27 58 26 22 -1 44 3 51 9 16 13 62 13 103 0 19 -6 49 -9 66 -8 29 2 30 1 20
-21 -12 -25 -21 -29 -31 -13 -3 6 -1 10 6 10 21 0 0 13 -24 15 -12 2 -38 5
-57 9 -32 5 -32 5 -6 -3 62 -21 82 -67 51 -121 -8 -14 -15 -20 -15 -15 0 6 -5
3 -10 -5 -8 -12 -10 -12 -10 -1 0 11 -3 11 -15 1 -13 -11 -15 -10 -10 6 4 15
3 14 -6 -2 -7 -14 -31 -27 -69 -38 -34 -9 -74 -29 -94 -47 -20 -17 -40 -28
-46 -24 -5 3 -10 -1 -10 -9 0 -9 9 -16 20 -16 11 0 20 -6 20 -14 0 -8 4 -17 9
-21 6 -3 7 9 4 30 -3 20 -1 35 4 35 6 0 23 11 39 25 17 15 36 22 49 20 100
-24 103 -25 43 -20 -32 3 -58 1 -58 -3 0 -4 12 -9 27 -10 46 -4 38 -12 -13
-13 -39 -1 -44 -3 -24 -9 16 -5 19 -8 8 -9 -9 -1 -20 -6 -24 -12 -5 -8 0 -10
17 -6 68 18 74 18 36 -3 -53 -29 -40 -36 18 -10 25 12 52 19 58 17 7 -3 0 -10
-15 -16 -16 -6 -40 -16 -55 -22 -17 -7 -23 -13 -15 -16 7 -3 32 4 55 15 24 11
50 22 58 24 17 3 139 -43 139 -54 0 -12 -89 -21 -157 -14 -37 4 -64 4 -61 1
15 -15 91 -19 208 -12 55 3 117 26 92 35 -6 2 -10 8 -7 13 7 10 -24 1 -41 -13
-8 -6 -26 1 -49 17 -21 14 -46 25 -56 25 -10 0 -21 5 -24 10 -11 17 28 11 69
-11 21 -11 43 -18 49 -16 7 2 -6 13 -28 25 -22 12 -33 21 -24 22 8 0 24 -7 35
-15 10 -8 26 -14 34 -14 12 0 11 3 -3 13 -18 14 -18 15 0 25 16 10 14 11 -12
10 -54 -3 -73 3 -35 11 32 7 30 8 -17 7 -29 0 -56 2 -59 6 -4 4 17 7 47 7 37
0 49 3 39 10 -13 8 -76 5 -107 -5 -7 -3 -39 1 -70 7 -49 10 -54 13 -33 19 14
4 59 7 100 8 60 1 86 -4 128 -24 48 -22 57 -32 53 -61 -1 -7 5 -14 13 -17 17
-7 16 -67 -2 -108 -10 -26 -80 -59 -124 -59 -10 0 -18 -4 -18 -10 0 -13 17
-13 79 2 28 6 51 16 51 21 0 5 7 7 14 4 15 -6 19 1 32 63 3 19 11 38 15 41 13
8 69 -2 69 -12 0 -5 -8 -6 -17 -2 -14 5 -15 3 -7 -6 9 -10 17 -10 34 -1 20 11
20 13 6 29 -14 15 -14 20 -2 37 12 15 17 17 28 6 11 -11 10 -14 -2 -22 -20
-12 -6 -23 19 -15 21 6 29 39 11 50 -5 3 -6 13 -3 22 3 9 2 14 -3 12 -48 -23
-64 -36 -75 -60 -14 -35 -31 -37 -58 -7 -45 48 -34 82 32 95 15 3 27 9 27 13
0 4 -16 4 -35 0 -20 -4 -44 -7 -53 -5 -9 1 -22 -2 -28 -7 -12 -9 -84 19 -84
32 0 8 48 32 74 37 30 5 33 13 5 13 -28 0 -91 -21 -110 -36 -20 -16 -51 -14
-44 3 3 8 5 16 5 19 0 10 62 34 72 28 7 -5 8 -3 4 5 -6 8 -21 10 -47 6 -33 -6
-38 -4 -33 9 3 9 12 16 19 16 8 0 17 9 20 20 11 33 40 43 76 24 24 -12 28 -19
20 -27 -9 -9 -14 -9 -20 1 -7 11 -9 11 -14 -2 -6 -15 7 -29 30 -32 7 -1 15 6
18 17 10 30 49 34 84 10 27 -20 29 -24 19 -52 -6 -16 -8 -32 -5 -35 3 -3 8 4
12 15 6 21 38 36 55 26 6 -4 7 -11 4 -17 -4 -7 -2 -8 5 -4 7 5 22 -3 37 -19
14 -15 27 -25 30 -22 7 7 -18 57 -28 57 -5 0 -7 4 -4 9 9 13 -60 70 -115 96
-27 12 -56 28 -65 35 -9 8 -21 15 -28 16 -6 2 -22 6 -36 9 -32 9 -233 19 -240
12z m-67 -34 c-7 -2 -19 -2 -25 0 -7 3 -2 5 12 5 14 0 19 -2 13 -5z m326 -37
c8 -10 23 -13 47 -9 40 7 81 -11 90 -39 3 -10 15 -19 27 -19 17 -1 18 -2 4 -6
-11 -3 -29 7 -47 27 -26 27 -36 32 -67 28 -22 -3 -49 2 -72 14 -27 14 -30 18
-14 18 11 0 26 -6 32 -14z m-155 -234 c2 -4 -7 -9 -22 -10 -21 -1 -24 0 -12 8
18 12 27 12 34 2z m-61 -19 c-7 -2 -19 -2 -25 0 -7 3 -2 5 12 5 14 0 19 -2 13
-5z m111 -2 c4 -5 -1 -8 -9 -7 -21 3 -31 16 -12 16 9 0 18 -4 21 -9z m-59 -11
c-3 -5 -14 -10 -23 -10 -15 0 -15 2 -2 10 20 13 33 13 25 0z m171 -85 c-11 -8
-27 -15 -35 -15 -10 1 -7 6 9 15 33 19 50 18 26 0z"/>
<path d="M783 720 c2 -29 19 -34 23 -7 1 9 -1 15 -6 12 -5 -3 -11 1 -14 7 -3
7 -4 2 -3 -12z"/>
<path d="M867 684 c-6 -7 3 -44 12 -44 10 0 11 39 2 45 -5 2 -11 2 -14 -1z"/>
<path d="M915 660 c-3 -4 6 -11 19 -14 15 -4 28 -17 35 -37 14 -42 14 -58 -3
-91 -12 -23 -12 -29 1 -39 8 -7 21 -26 29 -41 16 -31 15 -34 -31 -83 -28 -30
-119 -85 -139 -85 -9 0 -27 -7 -40 -15 -13 -9 -34 -18 -47 -21 -13 -3 -34 -8
-46 -11 -22 -5 -24 -2 -49 100 -11 48 -21 29 -20 -38 1 -40 -4 -69 -11 -73 -6
-4 -31 -6 -55 -4 -23 2 -58 3 -77 2 -43 0 -101 18 -101 32 0 6 -13 8 -35 4
-20 -4 -44 -2 -55 4 -15 8 -25 8 -34 1 -13 -11 -36 3 -36 24 0 5 -25 26 -56
45 -101 63 -144 160 -79 176 30 7 29 3 9 43 -26 52 -2 101 41 84 19 -7 16 -34
-4 -41 -10 -3 -12 0 -7 14 7 18 6 18 -9 3 -14 -14 -15 -20 -3 -38 14 -22 33
-27 43 -11 3 5 13 6 21 3 14 -5 14 -1 -1 33 -26 64 -58 79 -90 44 -21 -24 -24
-82 -5 -105 8 -9 9 -15 2 -15 -19 0 -42 -31 -42 -56 0 -37 54 -110 103 -138
24 -14 53 -39 65 -56 16 -21 31 -30 50 -30 15 0 44 0 64 0 21 0 51 -6 68 -15
17 -9 70 -18 123 -21 102 -7 126 3 128 49 0 20 2 19 10 -5 6 -14 16 -29 24
-31 13 -6 88 13 121 31 11 5 48 24 84 42 70 34 140 102 140 135 0 11 -11 33
-23 49 -22 27 -23 32 -10 57 15 30 10 82 -12 115 -15 23 -52 37 -60 24z"/>
<path d="M127 506 c-3 -8 2 -16 14 -19 10 -3 19 -12 19 -21 0 -13 -3 -13 -28
1 -61 35 -83 -14 -32 -69 l30 -33 35 37 c31 33 34 40 24 64 -9 25 -35 53 -50
54 -4 0 -9 -6 -12 -14z m8 -65 c7 -12 -12 -24 -25 -16 -11 7 -4 25 10 25 5 0
11 -4 15 -9z"/>
<path d="M245 507 c-48 -13 -49 -13 -41 -26 5 -7 15 -7 31 -1 15 6 25 6 25 0
0 -4 -8 -10 -17 -12 -15 -3 -14 -5 4 -10 12 -3 22 -3 21 1 -2 18 3 29 16 34
10 4 13 1 9 -9 -11 -29 18 -73 63 -94 24 -12 49 -20 56 -18 7 3 31 -1 53 -7
33 -10 46 -10 73 3 34 17 42 32 16 32 -8 0 -12 5 -9 10 9 15 32 12 39 -5 3 -8
-4 -24 -16 -35 -12 -11 -17 -20 -11 -20 7 0 19 7 27 16 39 39 -3 90 -50 59
-24 -16 -32 -35 -14 -35 6 0 10 -4 10 -9 0 -5 -15 -7 -32 -5 -124 17 -183 43
-175 76 3 10 0 18 -6 18 -7 0 -6 4 2 9 10 6 22 5 35 -5 34 -23 40 -16 8 11
-32 27 -47 32 -36 13 4 -7 -2 -5 -13 5 -11 9 -21 16 -24 16 -2 -1 -22 -6 -44
-12z"/>
<path d="M790 479 c0 -5 5 -7 10 -4 6 3 13 -1 16 -9 3 -9 10 -16 15 -16 5 0 4
9 -3 20 -14 21 -38 27 -38 9z"/>
<path d="M904 479 c-3 -6 0 -15 7 -20 12 -7 11 -11 -3 -25 -16 -17 -18 -17
-24 -1 -5 14 -9 15 -20 6 -8 -6 -14 -17 -14 -24 0 -8 -9 -10 -24 -8 -16 3 -31
-2 -45 -16 -12 -12 -30 -21 -42 -21 -15 0 -19 -5 -17 -22 4 -28 -22 -36 -29
-9 -6 24 -16 27 -30 9 -7 -9 -7 -28 1 -58 8 -35 16 -46 34 -48 22 -3 30 12 12
23 -17 10 -11 32 10 38 13 3 20 0 21 -9 3 -30 4 -34 12 -34 4 0 12 0 18 0 10
0 9 42 -3 75 -1 6 1 10 5 10 5 0 13 8 18 18 6 9 18 17 27 17 15 -1 15 -2 1
-13 -9 -7 -21 -22 -27 -34 -10 -17 -9 -25 4 -37 19 -19 14 -19 55 -2 48 20 50
24 28 62 -23 41 -25 57 -3 26 21 -30 47 -43 64 -32 12 8 11 13 -8 30 -19 18
-21 24 -10 37 11 13 14 12 31 -8 16 -20 20 -21 33 -8 12 13 10 19 -20 52 -35
38 -50 45 -62 26z m-49 -138 c3 -6 -4 -15 -15 -21 -16 -8 -20 -8 -20 3 0 25
23 36 35 18z"/>
<path d="M181 403 c-17 -26 -30 -52 -28 -57 7 -20 35 -17 42 4 9 28 28 13 22
-18 -5 -28 19 -75 34 -66 5 3 7 17 4 32 -5 22 -4 24 4 7 18 -41 63 -62 89 -42
18 15 14 29 -7 22 -28 -9 -47 20 -33 50 12 27 30 29 48 6 13 -16 30 2 19 20
-21 33 -105 20 -105 -16 0 -8 -4 -15 -10 -15 -5 0 -10 9 -10 20 0 11 6 20 14
20 20 0 31 19 18 32 -6 6 -17 5 -30 -3 -28 -17 -40 -4 -18 20 15 17 15 19 1
25 -9 3 -18 6 -20 6 -2 0 -17 -21 -34 -47z"/>
<path d="M276 441 c-3 -5 1 -11 9 -14 9 -4 12 -1 8 9 -6 16 -10 17 -17 5z"/>
<path d="M788 433 c7 -3 16 -2 19 1 4 3 -2 6 -13 5 -11 0 -14 -3 -6 -6z"/>
<path d="M401 346 c-14 -17 -10 -19 27 -16 33 2 27 -15 -10 -25 -34 -10 -48
-39 -30 -57 5 -5 26 -13 46 -18 29 -6 38 -5 44 9 14 28 14 87 0 98 -25 21 -64
25 -77 9z m49 -70 c0 -8 -4 -17 -9 -21 -12 -7 -24 12 -16 25 9 15 25 12 25 -4z"/>
<path d="M513 343 c-8 -3 -13 -23 -13 -53 0 -56 11 -68 63 -68 45 0 51 8 48
66 -2 53 -7 63 -27 55 -10 -4 -13 -15 -10 -36 3 -17 0 -39 -5 -49 -17 -31 -37
-5 -33 42 4 40 -2 51 -23 43z"/>
</g>
</svg>
