<svg width="108" height="24" viewBox="0 0 108 24" fill="none" xmlns="http://www.w3.org/2000/svg">
<path d="M0.871135 21.0122C0.325612 21.6357 0.388788 22.5833 1.01224 23.1289C1.6357 23.6744 2.58334 23.6112 3.12887 22.9878L0.871135 21.0122ZM104.9 23.4967C105.727 23.5518 106.442 22.9264 106.497 22.0998L107.395 8.62968C107.45 7.80309 106.824 7.08833 105.998 7.03322C105.171 6.97812 104.456 7.60353 104.401 8.43012L103.603 20.4035L91.6297 19.6053C90.8031 19.5502 90.0883 20.1756 90.0332 21.0022C89.9781 21.8288 90.6035 22.5436 91.4301 22.5987L104.9 23.4967ZM4.68138 21.421C5.2836 20.8522 5.31064 19.9028 4.74176 19.3006C4.17289 18.6984 3.22353 18.6713 2.6213 19.2402L4.68138 21.421ZM7.845 14.8993C7.17897 15.392 7.03839 16.3312 7.53103 16.9973C8.02366 17.6633 8.96295 17.8039 9.62898 17.3113L7.845 14.8993ZM13.4386 14.7013C14.1381 14.2575 14.3454 13.3306 13.9016 12.6311C13.4578 11.9316 12.531 11.7243 11.8314 12.1681L13.4386 14.7013ZM17.7092 8.82022C16.9709 9.19603 16.677 10.0992 17.0529 10.8375C17.4287 11.5757 18.3318 11.8696 19.0701 11.4938L17.7092 8.82022ZM23.2545 9.53373C24.0158 9.20694 24.368 8.32492 24.0412 7.56367C23.7144 6.80241 22.8324 6.45021 22.0712 6.77699L23.2545 9.53373ZM28.3894 4.39603C27.6018 4.65317 27.1719 5.50003 27.429 6.28754C27.6862 7.07504 28.533 7.50499 29.3206 7.24784L28.3894 4.39603ZM33.764 5.95041C34.5661 5.74324 35.0484 4.92506 34.8412 4.12296C34.634 3.32085 33.8159 2.83856 33.0138 3.04574L33.764 5.95041ZM39.6005 1.64417C38.7836 1.78189 38.233 2.55576 38.3707 3.37266C38.5084 4.18956 39.2823 4.74014 40.0992 4.60243L39.6005 1.64417ZM44.6982 3.96787C45.5218 3.87898 46.1175 3.13923 46.0286 2.31558C45.9397 1.49194 45.1999 0.896302 44.3763 0.985193L44.6982 3.96787ZM51.0876 0.533225C50.2595 0.556117 49.6067 1.24599 49.6296 2.0741C49.6525 2.90221 50.3424 3.55497 51.1705 3.53208L51.0876 0.533225ZM55.8295 3.53208C56.6576 3.55497 57.3475 2.90221 57.3704 2.0741C57.3933 1.24599 56.7405 0.556117 55.9124 0.533225L55.8295 3.53208ZM62.6237 0.985193C61.8001 0.896302 61.0603 1.49194 60.9714 2.31558C60.8825 3.13923 61.4782 3.87898 62.3018 3.96787L62.6237 0.985193ZM66.9008 4.60243C67.7177 4.74014 68.4916 4.18956 68.6293 3.37266C68.767 2.55576 68.2164 1.78189 67.3995 1.64417L66.9008 4.60243ZM73.9863 3.04574C73.1841 2.83856 72.366 3.32085 72.1588 4.12296C71.9516 4.92506 72.4339 5.74324 73.236 5.95041L73.9863 3.04574ZM77.6794 7.24784C78.4669 7.50499 79.3138 7.07505 79.571 6.28754C79.8281 5.50003 79.3982 4.65317 78.6106 4.39603L77.6794 7.24784ZM84.9288 6.77699C84.1676 6.45021 83.2856 6.80241 82.9588 7.56367C82.632 8.32492 82.9842 9.20694 83.7455 9.53373L84.9288 6.77699ZM87.9299 11.4938C88.6682 11.8696 89.5713 11.5757 89.9471 10.8375C90.323 10.0992 90.0291 9.19603 89.2908 8.82022L87.9299 11.4938ZM95.1686 12.1681C94.469 11.7243 93.5422 11.9316 93.0984 12.6311C92.6546 13.3306 92.8619 14.2575 93.5614 14.7013L95.1686 12.1681ZM97.371 17.3113C98.0371 17.8039 98.9763 17.6633 99.469 16.9973C99.9616 16.3312 99.821 15.392 99.155 14.8993L97.371 17.3113ZM104.379 19.2402C103.776 18.6713 102.827 18.6984 102.258 19.3006C101.689 19.9028 101.716 20.8522 102.319 21.421L104.379 19.2402ZM2 22C3.12887 22.9878 3.12878 22.9878 3.12871 22.9879C3.12868 22.988 3.12861 22.9881 3.12856 22.9881C3.12847 22.9882 3.12838 22.9883 3.12831 22.9884C3.12815 22.9886 3.12803 22.9887 3.12795 22.9888C3.12777 22.989 3.12774 22.989 3.12783 22.9889C3.12802 22.9887 3.12875 22.9879 3.13001 22.9865C3.13253 22.9836 3.13718 22.9784 3.14398 22.9708C3.15757 22.9556 3.17972 22.931 3.21039 22.8974C3.27175 22.8303 3.36724 22.7274 3.49677 22.5922C3.75585 22.3217 4.15097 21.9221 4.68138 21.421L2.6213 19.2402C2.05268 19.7773 1.62213 20.2124 1.3303 20.517C1.18437 20.6694 1.0731 20.7892 0.99655 20.8729C0.958276 20.9147 0.928681 20.9475 0.907777 20.9709C0.897324 20.9826 0.889044 20.9919 0.882936 20.9988C0.879883 21.0023 0.877372 21.0051 0.875405 21.0074C0.874422 21.0085 0.873574 21.0095 0.872863 21.0103C0.872507 21.0107 0.872185 21.011 0.871897 21.0114C0.871753 21.0115 0.871617 21.0117 0.87149 21.0118C0.871427 21.0119 0.871338 21.012 0.871306 21.012C0.87122 21.0121 0.871135 21.0122 2 22ZM9.62898 17.3113C10.7545 16.4788 12.0246 15.5984 13.4386 14.7013L11.8314 12.1681C10.354 13.1054 9.02495 14.0266 7.845 14.8993L9.62898 17.3113ZM19.0701 11.4938C20.3848 10.8245 21.7797 10.1668 23.2545 9.53373L22.0712 6.77699C20.5343 7.43669 19.0802 8.12231 17.7092 8.82022L19.0701 11.4938ZM29.3206 7.24784C30.7445 6.78288 32.2257 6.34773 33.764 5.95041L33.0138 3.04574C31.4134 3.45908 29.8719 3.91194 28.3894 4.39603L29.3206 7.24784ZM40.0992 4.60243C41.5878 4.35147 43.1208 4.13811 44.6982 3.96787L44.3763 0.985193C42.7392 1.16188 41.1472 1.38342 39.6005 1.64417L40.0992 4.60243ZM51.1705 3.53208C51.9379 3.51087 52.7144 3.5 53.5 3.5V0.5C52.6867 0.5 51.8826 0.511249 51.0876 0.533225L51.1705 3.53208ZM53.5 3.5C54.2856 3.5 55.0621 3.51087 55.8295 3.53208L55.9124 0.533225C55.1174 0.511249 54.3133 0.5 53.5 0.5V3.5ZM62.3018 3.96787C63.8792 4.13811 65.4122 4.35147 66.9008 4.60243L67.3995 1.64417C65.8528 1.38342 64.2608 1.16188 62.6237 0.985193L62.3018 3.96787ZM73.236 5.95041C74.7743 6.34773 76.2555 6.78288 77.6794 7.24784L78.6106 4.39603C77.1282 3.91194 75.5866 3.45908 73.9863 3.04574L73.236 5.95041ZM83.7455 9.53373C85.2203 10.1668 86.6152 10.8245 87.9299 11.4938L89.2908 8.82022C87.9198 8.12231 86.4657 7.43669 84.9288 6.77699L83.7455 9.53373ZM93.5614 14.7013C94.9754 15.5984 96.2455 16.4788 97.371 17.3113L99.155 14.8993C97.9751 14.0266 96.646 13.1054 95.1686 12.1681L93.5614 14.7013ZM102.319 21.421C102.849 21.9221 103.244 22.3217 103.503 22.5922C103.633 22.7274 103.728 22.8303 103.79 22.8974C103.82 22.931 103.842 22.9556 103.856 22.9708C103.863 22.9784 103.867 22.9836 103.87 22.9865C103.871 22.9879 103.872 22.9887 103.872 22.9889C103.872 22.989 103.872 22.989 103.872 22.9888C103.872 22.9887 103.872 22.9886 103.872 22.9884C103.872 22.9883 103.872 22.9882 103.871 22.9881C103.871 22.9881 103.871 22.988 103.871 22.9879C103.871 22.9878 103.871 22.9878 105 22C106.129 21.0122 106.129 21.0121 106.129 21.012C106.129 21.012 106.129 21.0119 106.129 21.0118C106.128 21.0117 106.128 21.0115 106.128 21.0114C106.128 21.011 106.127 21.0107 106.127 21.0103C106.126 21.0095 106.126 21.0085 106.125 21.0074C106.123 21.0051 106.12 21.0023 106.117 20.9988C106.111 20.9919 106.103 20.9826 106.092 20.9709C106.071 20.9475 106.042 20.9147 106.003 20.8729C105.927 20.7892 105.816 20.6694 105.67 20.517C105.378 20.2124 104.947 19.7773 104.379 19.2402L102.319 21.421Z" fill="#FDF181"/>
</svg>
